<svg width="25" height="24" viewBox="0 0 25 24" fill="none" xmlns="http://www.w3.org/2000/svg">
<g id="access-point-network">
<path id="Vector" d="M5.43 3.92999C3.62 5.73999 2.5 8.23999 2.5 11C2.5 13.76 3.62 16.26 5.43 18.07L6.84 16.66C5.39 15.22 4.5 13.22 4.5 11C4.5 8.78999 5.39 6.77999 6.84 5.33999L5.43 3.92999ZM19.57 3.92999L18.16 5.33999C19.61 6.77999 20.5 8.78999 20.5 11C20.5 13.22 19.61 15.22 18.16 16.66L19.57 18.07C21.38 16.26 22.5 13.76 22.5 11C22.5 8.23999 21.38 5.73999 19.57 3.92999ZM8.26 6.75999C7.17 7.84999 6.5 9.34999 6.5 11C6.5 12.65 7.17 14.15 8.26 15.24L9.67 13.83C8.95 13.11 8.5 12.11 8.5 11C8.5 9.88999 8.95 8.88999 9.67 8.16999L8.26 6.75999ZM16.74 6.75999L15.33 8.16999C16.05 8.88999 16.5 9.88999 16.5 11C16.5 12.11 16.05 13.11 15.33 13.83L16.74 15.24C17.83 14.15 18.5 12.65 18.5 11C18.5 9.34999 17.83 7.84999 16.74 6.75999ZM12.5 8.99999C11.9696 8.99999 11.4609 9.21071 11.0858 9.58578C10.7107 9.96085 10.5 10.4696 10.5 11C10.5 11.5304 10.7107 12.0391 11.0858 12.4142C11.4609 12.7893 11.9696 13 12.5 13C13.0304 13 13.5391 12.7893 13.9142 12.4142C14.2893 12.0391 14.5 11.5304 14.5 11C14.5 10.4696 14.2893 9.96085 13.9142 9.58578C13.5391 9.21071 13.0304 8.99999 12.5 8.99999ZM11.5 15V19H10.5C10.2348 19 9.98043 19.1053 9.79289 19.2929C9.60536 19.4804 9.5 19.7348 9.5 20H2.5V22H9.5C9.5 22.2652 9.60536 22.5196 9.79289 22.7071C9.98043 22.8946 10.2348 23 10.5 23H14.5C14.7652 23 15.0196 22.8946 15.2071 22.7071C15.3946 22.5196 15.5 22.2652 15.5 22H22.5V20H15.5C15.5 19.7348 15.3946 19.4804 15.2071 19.2929C15.0196 19.1053 14.7652 19 14.5 19H13.5V15H11.5Z" fill="#083553"/>
</g>
</svg>
