<svg width="25" height="24" viewBox="0 0 25 24" fill="none" xmlns="http://www.w3.org/2000/svg">
<g id="chat-question">
<path id="Vector" d="M12.5 3C7 3 2.5 6.6 2.5 11C2.5 13.1 3.5 15.1 5.3 16.5C5.3 17.1 4.9 18.7 2.5 21C2.5 21 6 21 9 18.5C10.1 18.8 11.3 19 12.5 19C18 19 22.5 15.4 22.5 11C22.5 6.6 18 3 12.5 3ZM13.5 15H11.5V13H13.5V15ZM15.3 10C15 10.4 14.6 10.6 14.2 10.8C13.9 11 13.8 11.1 13.7 11.3C13.5 11.5 13.5 11.7 13.5 12H11.5C11.5 11.5 11.6 11.2 11.8 10.9C12 10.7 12.4 10.4 12.9 10.1C13.2 10 13.4 9.8 13.5 9.6C13.6 9.4 13.7 9.1 13.7 8.9C13.7 8.6 13.6 8.4 13.4 8.2C13.2 8 12.9 7.9 12.6 7.9C12.3 7.9 12.1 8 11.9 8.1C11.7 8.2 11.6 8.4 11.6 8.7H9.6C9.7 8 10 7.4 10.5 7C11 6.6 11.7 6.5 12.6 6.5C13.5 6.5 14.3 6.7 14.8 7.1C15.3 7.5 15.6 8.1 15.6 8.8C15.7 9.2 15.6 9.6 15.3 10Z" fill="#083553"/>
</g>
</svg>
