<svg width="25" height="24" viewBox="0 0 25 24" fill="none" xmlns="http://www.w3.org/2000/svg">
<g id="information-variant-box">
<path id="Vector" d="M5.5 3H19.5C20.6 3 21.5 3.89 21.5 5V19C21.5 19.53 21.29 20.04 20.91 20.41C20.54 20.79 20.03 21 19.5 21H5.5C4.97 21 4.46 20.79 4.09 20.41C3.71 20.04 3.5 19.53 3.5 19V5C3.5 3.89 4.39 3 5.5 3ZM12.8 7.29C12.61 7.5 12.5 7.74 12.5 8C12.5 8.27 12.61 8.5 12.8 8.71C13 8.9 13.24 9 13.5 9C13.77 9 14 8.9 14.21 8.71C14.4 8.5 14.5 8.27 14.5 8C14.5 7.74 14.4 7.5 14.21 7.29C14 7.11 13.77 7 13.5 7C13.24 7 13 7.11 12.8 7.29ZM10.3 11.97C10.2 12.06 10.2 12.07 10.27 12.17L10.32 12.25L10.35 12.31C10.42 12.44 10.43 12.44 10.54 12.36C10.67 12.27 10.89 12.13 11.26 11.91C12.18 11.32 12 12 11.59 13.5C11.37 14.33 11.09 15.39 10.88 16.62C10.64 18.37 12.21 17.47 12.62 17.2C13 16.96 13.94 16.3 14.16 16.15L14.2 16.13C14.32 16.04 14.27 16 14.18 15.86L14.12 15.78C14.04 15.67 13.96 15.75 13.96 15.75L13.8 15.86C13.35 16.16 12.73 16.59 12.63 16.25C12.54 16 12.91 14.64 13.29 13.25C13.46 12.64 13.63 12 13.76 11.47L13.78 11.41C13.85 10.97 14 10.12 13.27 10.18C12.47 10.25 10.3 11.97 10.3 11.97Z" fill="#083553"/>
</g>
</svg>
