<svg width="42" height="61" viewBox="0 0 42 61" fill="none" xmlns="http://www.w3.org/2000/svg">
<g id="Group 1">
<g id="Vector 1" filter="url(#filter0_d_287_101)">
<path d="M18.4681 37.0488V38.0488C19.0204 38.0488 19.4681 37.6011 19.4681 37.0488H18.4681ZM18.4681 2.44501H19.4681C19.4681 2.17873 19.3619 1.92345 19.1731 1.73574C18.9842 1.54803 18.7283 1.4434 18.462 1.44503L18.4681 2.44501ZM5.09847 13.8485L6.09433 13.9395L6.09499 13.9322L6.09554 13.925L5.09847 13.8485ZM9.42393 5.59081L8.83171 4.78503C8.80887 4.80182 8.78676 4.81957 8.76542 4.83823L9.42393 5.59081ZM12.1765 37.0488L11.1792 37.1225C11.2178 37.6448 11.6528 38.0488 12.1765 38.0488V37.0488ZM9.81717 29.1843L10.7156 28.7451L10.7078 28.7293L10.6995 28.7137L9.81717 29.1843ZM19.4681 37.0488V2.44501H17.4681V37.0488H19.4681ZM18.462 1.44503C16.4538 1.45732 14.8711 1.66333 13.3537 2.20338C11.8437 2.74079 10.4622 3.58667 8.83171 4.78503L10.0161 6.39659C11.5834 5.24474 12.7824 4.5296 14.0243 4.0876C15.2588 3.64825 16.5993 3.45647 18.4743 3.44499L18.462 1.44503ZM8.76542 4.83823C7.13035 6.26892 6.01498 7.60748 5.28263 9.06672C4.54846 10.5296 4.23388 12.0451 4.1014 13.772L6.09554 13.925C6.21604 12.3543 6.49129 11.1172 7.07015 9.96382C7.65083 8.80676 8.5717 7.66528 10.0824 6.34339L8.76542 4.83823ZM4.10261 13.7576C3.82731 16.7722 4.10683 18.7546 4.93624 21.2428L6.8336 20.6103C6.09007 18.3798 5.84456 16.6745 6.09433 13.9395L4.10261 13.7576ZM12.1765 38.0488H18.4681V36.0488H12.1765V38.0488ZM4.93624 21.2428C5.35602 22.5021 6.37356 24.6314 7.25155 26.3874C7.69706 27.2784 8.11749 28.0946 8.42644 28.6878C8.58098 28.9845 8.70779 29.2257 8.79608 29.393C8.84023 29.4767 8.87477 29.5419 8.89834 29.5863C8.91012 29.6085 8.91917 29.6255 8.9253 29.637C8.92837 29.6428 8.93071 29.6472 8.9323 29.6502C8.9331 29.6517 8.93371 29.6528 8.93413 29.6536C8.93434 29.654 8.9345 29.6543 8.93462 29.6545C8.93468 29.6546 8.93473 29.6547 8.93475 29.6548C8.93479 29.6548 8.93482 29.6549 9.81717 29.1843C10.6995 28.7137 10.6995 28.7137 10.6995 28.7137C10.6995 28.7137 10.6995 28.7136 10.6994 28.7136C10.6994 28.7134 10.6992 28.7132 10.6991 28.7129C10.6987 28.7122 10.6982 28.7112 10.6975 28.7099C10.696 28.7072 10.6939 28.7031 10.6909 28.6976C10.6851 28.6867 10.6764 28.6703 10.665 28.6487C10.6421 28.6056 10.6083 28.5417 10.5649 28.4595C10.478 28.295 10.3529 28.057 10.2003 27.7639C9.89481 27.1774 9.47964 26.3715 9.0404 25.493C8.14888 23.7099 7.2003 21.7104 6.8336 20.6103L4.93624 21.2428ZM8.91879 29.6235C10.3597 32.5709 10.9594 34.1464 11.1792 37.1225L13.1738 36.9751C12.9278 33.6456 12.2142 31.8105 10.7156 28.7451L8.91879 29.6235Z" fill="#E68939"/>
</g>
<g id="Vector 2" filter="url(#filter1_d_287_101)">
<path d="M22.0069 36.6556V26.4318C22.6972 26.0534 23.4259 26.041 24.7595 26.0386C25.3923 25.9067 25.9016 25.5909 25.9393 24.8589C26.281 24.3427 25.373 23.9236 25.1529 24.0724C25.0709 24.0017 23.9952 24.1348 22.7933 24.8589C22.7933 24.8589 21.938 25.0353 22.0069 24.4657L22.0071 17.3876C23.3032 17.7052 24.9284 17.9668 25.5459 17.7808C26.1186 17.7107 26.6794 17.5461 26.7258 16.9944C26.866 16.3101 25.9391 15.8147 25.9391 15.8147C25.9391 15.8147 24.6168 15.324 22.7933 15.8147C22.5228 15.9685 22.3454 15.9752 22.0069 15.8147L22.0069 5.1976C22.038 4.86881 22.2755 4.10159 22.7933 3.62472C23.7216 2.51476 24.8054 2.27676 26.7256 2.44504C28.6 2.89159 29.1614 3.26919 29.8714 4.01794C30.1135 4.62367 30.2808 4.96017 30.2646 5.59085C30.1997 6.06713 30.3809 6.60461 29.8716 6.7705C30.2112 7.31613 28.7812 6.39628 28.2985 5.98405C28.2985 5.98405 27.8896 5.67901 27.512 4.80437C27.1344 3.92974 26.329 4.4651 26.3324 4.80437C26.3357 5.14365 26.4046 5.7817 25.9391 5.98405C25.526 5.85693 25.25 5.80415 24.7595 5.59083C24.3955 5.55907 23.9809 5.90566 24.3662 6.3773C25.2845 7.02959 25.7456 7.37264 25.5459 7.55697C24.4424 8.78054 23.9353 9.36263 23.973 9.52306C23.8832 9.69412 24.0152 9.89211 24.3662 10.3096L26.7256 7.95016C27.7559 7.428 28.3524 7.22707 29.4782 7.16375C30.9678 7.28974 31.9257 7.57861 32.624 8.34338C34.0047 10.057 33.8451 10.4089 34.1969 11.096C34.3177 12.0873 34.3166 12.6032 34.1969 13.4554C33.7132 14.7296 33.3688 15.2374 32.624 15.8147C31.9352 16.3046 31.6017 16.4678 31.0511 16.6012C30.6116 16.9237 30.6286 17.0508 30.6501 17.0172C30.6551 17.0024 30.658 16.9944 30.658 16.9944C30.6561 17.005 30.653 17.0126 30.6501 17.0172C30.5926 17.1885 30.2651 18.2707 31.0511 18.5673L31.0588 18.5628C32.7896 17.5606 33.7623 16.9974 34.5901 16.9944C35.3029 17.0178 35.6046 17.3129 36.163 17.7808C36.8143 18.8254 36.946 19.3273 36.9494 20.1401C37.1706 21.422 36.6685 23.0081 35.3765 23.2859C33.7225 23.3272 31.492 23.8177 32.2309 23.6792C32.2309 23.6792 29.3117 24.5013 29.8714 25.2521C30.4142 25.9088 30.7742 26.0047 31.4443 26.0386C32.6274 25.8262 33.3187 25.2587 34.1969 25.6453C34.9983 25.9023 35.0818 26.8179 34.9835 28.0047C34.7047 29.7061 33.5546 32.0918 32.2307 31.1505C31.8062 30.7971 31.5423 30.3021 31.0511 29.1844C30.6022 28.55 30.134 28.104 29.0849 27.2182C28.4529 27.2978 28.2912 27.4794 28.2985 28.0047C29.5893 28.9374 30.182 29.5652 30.6578 31.1505C30.8888 32.4944 30.9316 33.4692 30.2648 34.6895C29.529 36.036 28.9523 36.4927 27.9053 36.6556C25.6019 36.8841 24.3106 36.9542 22.0069 36.6556Z" stroke="#0A81B2" stroke-width="2" stroke-linejoin="round" shape-rendering="crispEdges"/>
</g>
<g id="Group 2" filter="url(#filter2_d_287_101)">
<path id="Vector 3" d="M24.268 48.8456H16.7968C18.0025 51.1883 18.5871 51.5101 20.3358 51.5982C22.2079 51.6925 23.7638 50.5765 24.268 48.8456Z" stroke="#A6A4A4" stroke-width="2" stroke-linejoin="round"/>
<path id="Vector 4" d="M13.7445 41.7676H26.7209C26.7754 39.8155 26.3792 39.46 25.148 39.4082H15.3174C13.9601 39.5732 13.7441 40.2042 13.7445 41.7676Z" stroke="#A6A4A4" stroke-width="2" stroke-linejoin="round"/>
<path id="Vector 5" d="M26.726 44.1269H13.7495C13.6951 46.079 14.0912 46.4345 15.3224 46.4863H25.1531C26.5103 46.3213 26.7263 45.6903 26.726 44.1269Z" stroke="#A6A4A4" stroke-width="2" stroke-linejoin="round"/>
</g>
</g>
<defs>
<filter id="filter0_d_287_101" x="6.10352e-05" y="1.44501" width="23.4681" height="44.6038" filterUnits="userSpaceOnUse" color-interpolation-filters="sRGB">
<feFlood flood-opacity="0" result="BackgroundImageFix"/>
<feColorMatrix in="SourceAlpha" type="matrix" values="0 0 0 0 0 0 0 0 0 0 0 0 0 0 0 0 0 0 127 0" result="hardAlpha"/>
<feOffset dy="4"/>
<feGaussianBlur stdDeviation="2"/>
<feComposite in2="hardAlpha" operator="out"/>
<feColorMatrix type="matrix" values="0 0 0 0 0.901961 0 0 0 0 0.537255 0 0 0 0 0.223529 0 0 0 0.6 0"/>
<feBlend mode="normal" in2="BackgroundImageFix" result="effect1_dropShadow_287_101"/>
<feBlend mode="normal" in="SourceGraphic" in2="effect1_dropShadow_287_101" result="shape"/>
</filter>
<filter id="filter1_d_287_101" x="17.0032" y="0.39624" width="24.9967" height="44.4579" filterUnits="userSpaceOnUse" color-interpolation-filters="sRGB">
<feFlood flood-opacity="0" result="BackgroundImageFix"/>
<feColorMatrix in="SourceAlpha" type="matrix" values="0 0 0 0 0 0 0 0 0 0 0 0 0 0 0 0 0 0 127 0" result="hardAlpha"/>
<feOffset dy="3"/>
<feGaussianBlur stdDeviation="2"/>
<feComposite in2="hardAlpha" operator="out"/>
<feColorMatrix type="matrix" values="0 0 0 0 0.203922 0 0 0 0 0.596078 0 0 0 0 0.858824 0 0 0 0.6 0"/>
<feBlend mode="normal" in2="BackgroundImageFix" result="effect1_dropShadow_287_101"/>
<feBlend mode="normal" in="SourceGraphic" in2="effect1_dropShadow_287_101" result="shape"/>
</filter>
<filter id="filter2_d_287_101" x="8.74445" y="38.4082" width="22.9816" height="22.1955" filterUnits="userSpaceOnUse" color-interpolation-filters="sRGB">
<feFlood flood-opacity="0" result="BackgroundImageFix"/>
<feColorMatrix in="SourceAlpha" type="matrix" values="0 0 0 0 0 0 0 0 0 0 0 0 0 0 0 0 0 0 127 0" result="hardAlpha"/>
<feOffset dy="4"/>
<feGaussianBlur stdDeviation="2"/>
<feComposite in2="hardAlpha" operator="out"/>
<feColorMatrix type="matrix" values="0 0 0 0 0 0 0 0 0 0 0 0 0 0 0 0 0 0 0.25 0"/>
<feBlend mode="normal" in2="BackgroundImageFix" result="effect1_dropShadow_287_101"/>
<feBlend mode="normal" in="SourceGraphic" in2="effect1_dropShadow_287_101" result="shape"/>
</filter>
</defs>
</svg>
